# xmcd
#
# Track frame offsets:
#	150
#	15890
#	32252
#	47350
#	61631
#	74112
#	89283
#	105293
#	119443
#	133855
#	147765
#	162718
#	176438
#
# Disc length: 2506 seconds
#
# Revision: 0
# Processed by: cddbd v1.5.1PL0 Copyright (c) Steve Scherf et al.
# Submitted via: dBpowerAMP V4.0
#
DISCID=a209c80d
DTITLE=Dagmar - Ich geh' meinen Weg
DYEAR=1900
DGENRE=Country
TTITLE0=Alles ist möglich
TTITLE1=Das imponiert mir nicht
TTITLE2=Es wird Zeit dass ich geh'
TTITLE3=One Way Ticket nach New Orleans
TTITLE4=Manche nennen es Liebe
TTITLE5=Wie viele Tränen ist er Dir wert
TTITLE6=Ich geh' meinen Weg
TTITLE7=Rutsch mir doch den Buckel runter
TTITLE8=Ich bin wieder mal zu Haus
TTITLE9=Bald, schon bald
TTITLE10=Das trifft sich gut
TTITLE11=Hände weg
TTITLE12=Manchmal (Neue Version)
EXTD=
EXTT0=
EXTT1=
EXTT2=
EXTT3=
EXTT4=
EXTT5=
EXTT6=
EXTT7=
EXTT8=
EXTT9=
EXTT10=
EXTT11=
EXTT12=
PLAYORDER=
